<svg xmlns="http://www.w3.org/2000/svg" xmlns:xlink="http://www.w3.org/1999/xlink" width="500" zoomAndPan="magnify" viewBox="0 0 375 374.999991" height="500" preserveAspectRatio="xMidYMid meet" version="1.0"><defs><clipPath id="e1f596318c"><path d="M 62.386719 250 L 188 250 L 188 375 L 62.386719 375 Z M 62.386719 250 " clip-rule="nonzero"/></clipPath><clipPath id="c9b6f48363"><path d="M 62.386719 125 L 188 125 L 188 250 L 62.386719 250 Z M 62.386719 125 " clip-rule="nonzero"/></clipPath><clipPath id="3724b2275d"><path d="M 62.386719 0 L 188 0 L 188 125 L 62.386719 125 Z M 62.386719 0 " clip-rule="nonzero"/></clipPath><clipPath id="279b51eea0"><path d="M 187 0 L 312.886719 0 L 312.886719 125 L 187 125 Z M 187 0 " clip-rule="nonzero"/></clipPath><clipPath id="865c11dd05"><path d="M 187 125 L 312.886719 125 L 312.886719 250 L 187 250 Z M 187 125 " clip-rule="nonzero"/></clipPath></defs><g clip-path="url(#e1f596318c)"><path fill="#0acf83" d="M 125.066406 375 C 159.605469 375 187.636719 347 187.636719 312.5 L 187.636719 250 L 125.066406 250 C 90.527344 250 62.496094 278 62.496094 312.5 C 62.496094 347 90.527344 375 125.066406 375 Z M 125.066406 375 " fill-opacity="1" fill-rule="nonzero"/></g><g clip-path="url(#c9b6f48363)"><path fill="#a259ff" d="M 62.496094 187.5 C 62.496094 153 90.527344 125 125.066406 125 L 187.636719 125 L 187.636719 250 L 125.066406 250 C 90.527344 250 62.496094 222 62.496094 187.5 Z M 62.496094 187.5 " fill-opacity="1" fill-rule="nonzero"/></g><g clip-path="url(#3724b2275d)"><path fill="#f24e1e" d="M 62.496094 62.5 C 62.496094 28 90.527344 0 125.066406 0 L 187.636719 0 L 187.636719 125 L 125.066406 125 C 90.527344 125 62.496094 97 62.496094 62.5 Z M 62.496094 62.5 " fill-opacity="1" fill-rule="nonzero"/></g><g clip-path="url(#279b51eea0)"><path fill="#ff7262" d="M 187.636719 0 L 250.207031 0 C 284.746094 0 312.777344 28 312.777344 62.5 C 312.777344 97 284.746094 125 250.207031 125 L 187.636719 125 Z M 187.636719 0 " fill-opacity="1" fill-rule="nonzero"/></g><g clip-path="url(#865c11dd05)"><path fill="#1abcfe" d="M 312.777344 187.5 C 312.777344 222 284.746094 250 250.207031 250 C 215.667969 250 187.636719 222 187.636719 187.5 C 187.636719 153 215.667969 125 250.207031 125 C 284.746094 125 312.777344 153 312.777344 187.5 Z M 312.777344 187.5 " fill-opacity="1" fill-rule="nonzero"/></g></svg>