<svg xmlns="http://www.w3.org/2000/svg" xmlns:xlink="http://www.w3.org/1999/xlink" width="500" zoomAndPan="magnify" viewBox="0 0 375 374.999991" height="500" preserveAspectRatio="xMidYMid meet" version="1.0"><path fill="#f03c2e" d="M 367.921875 170.800781 L 204.199219 7.078125 C 203.640625 6.519531 203.054688 5.988281 202.445312 5.484375 C 201.832031 4.984375 201.199219 4.515625 200.539062 4.074219 C 199.882812 3.632812 199.207031 3.226562 198.507812 2.855469 C 197.8125 2.484375 197.097656 2.144531 196.367188 1.84375 C 195.636719 1.539062 194.890625 1.273438 194.136719 1.042969 C 193.378906 0.8125 192.613281 0.621094 191.835938 0.46875 C 191.058594 0.3125 190.277344 0.195312 189.492188 0.121094 C 188.703125 0.0429688 187.914062 0.00390625 187.125 0.00390625 C 186.335938 0.00390625 185.546875 0.0429688 184.757812 0.121094 C 183.972656 0.195312 183.191406 0.3125 182.414062 0.46875 C 181.636719 0.621094 180.871094 0.8125 180.113281 1.042969 C 179.359375 1.273438 178.613281 1.539062 177.882812 1.84375 C 177.152344 2.144531 176.4375 2.484375 175.742188 2.855469 C 175.042969 3.226562 174.367188 3.632812 173.710938 4.074219 C 173.050781 4.515625 172.417969 4.984375 171.804688 5.484375 C 171.195312 5.988281 170.609375 6.519531 170.050781 7.078125 L 136.066406 41.0625 L 179.191406 84.1875 C 189.222656 80.671875 200.707031 83.074219 208.699219 91.066406 C 209.644531 92.015625 210.519531 93.023438 211.328125 94.09375 C 212.132812 95.164062 212.859375 96.289062 213.507812 97.460938 C 214.15625 98.632812 214.71875 99.84375 215.195312 101.09375 C 215.675781 102.347656 216.0625 103.625 216.363281 104.929688 C 216.664062 106.238281 216.871094 107.558594 216.984375 108.890625 C 217.097656 110.226562 217.121094 111.5625 217.046875 112.902344 C 216.976562 114.238281 216.8125 115.566406 216.550781 116.878906 C 216.292969 118.195312 215.945312 119.484375 215.507812 120.75 L 257.074219 162.316406 C 267.128906 158.847656 278.730469 161.085938 286.757812 169.136719 C 287.425781 169.800781 288.054688 170.5 288.652344 171.226562 C 289.25 171.953125 289.8125 172.710938 290.335938 173.492188 C 290.859375 174.273438 291.339844 175.082031 291.785156 175.910156 C 292.230469 176.742188 292.632812 177.59375 292.992188 178.460938 C 293.351562 179.332031 293.671875 180.21875 293.945312 181.117188 C 294.21875 182.019531 294.445312 182.933594 294.628906 183.855469 C 294.8125 184.777344 294.953125 185.710938 295.042969 186.644531 C 295.136719 187.582031 295.183594 188.523438 295.183594 189.464844 C 295.183594 190.40625 295.136719 191.34375 295.042969 192.28125 C 294.953125 193.21875 294.816406 194.148438 294.632812 195.074219 C 294.449219 195.996094 294.21875 196.910156 293.945312 197.808594 C 293.671875 198.710938 293.355469 199.597656 292.996094 200.464844 C 292.632812 201.335938 292.234375 202.1875 291.789062 203.015625 C 291.34375 203.847656 290.859375 204.652344 290.335938 205.4375 C 289.816406 206.21875 289.253906 206.976562 288.65625 207.703125 C 288.058594 208.429688 287.429688 209.128906 286.761719 209.792969 C 286.097656 210.457031 285.398438 211.089844 284.671875 211.6875 C 283.941406 212.285156 283.1875 212.84375 282.40625 213.367188 C 281.621094 213.890625 280.816406 214.375 279.984375 214.816406 C 279.152344 215.261719 278.304688 215.664062 277.433594 216.023438 C 276.5625 216.382812 275.679688 216.699219 274.777344 216.972656 C 273.875 217.246094 272.964844 217.472656 272.039062 217.65625 C 271.117188 217.839844 270.1875 217.980469 269.25 218.070312 C 268.3125 218.164062 267.371094 218.207031 266.429688 218.207031 C 265.488281 218.207031 264.550781 218.160156 263.613281 218.070312 C 262.675781 217.976562 261.746094 217.835938 260.820312 217.652344 C 259.898438 217.46875 258.984375 217.242188 258.085938 216.964844 C 257.183594 216.691406 256.300781 216.375 255.429688 216.015625 C 254.558594 215.652344 253.710938 215.25 252.878906 214.808594 C 252.050781 214.363281 251.242188 213.878906 250.460938 213.355469 C 249.675781 212.832031 248.921875 212.269531 248.195312 211.671875 C 247.46875 211.074219 246.769531 210.445312 246.105469 209.777344 C 237.667969 201.339844 235.582031 188.917969 239.847656 178.523438 L 201.082031 139.757812 L 201.082031 241.769531 C 203.914062 243.171875 206.453125 244.984375 208.699219 247.207031 C 209.363281 247.871094 209.996094 248.570312 210.59375 249.296875 C 211.191406 250.023438 211.75 250.777344 212.273438 251.5625 C 212.796875 252.34375 213.277344 253.152344 213.722656 253.980469 C 214.167969 254.8125 214.570312 255.660156 214.929688 256.53125 C 215.289062 257.398438 215.605469 258.285156 215.878906 259.183594 C 216.152344 260.085938 216.378906 260.996094 216.5625 261.921875 C 216.746094 262.84375 216.886719 263.773438 216.976562 264.710938 C 217.070312 265.648438 217.117188 266.585938 217.117188 267.527344 C 217.117188 268.46875 217.070312 269.40625 216.976562 270.34375 C 216.886719 271.28125 216.746094 272.210938 216.5625 273.132812 C 216.378906 274.058594 216.152344 274.96875 215.878906 275.871094 C 215.605469 276.769531 215.289062 277.65625 214.929688 278.523438 C 214.570312 279.394531 214.167969 280.242188 213.722656 281.074219 C 213.277344 281.902344 212.796875 282.710938 212.273438 283.492188 C 211.75 284.277344 211.191406 285.03125 210.59375 285.757812 C 209.996094 286.484375 209.363281 287.183594 208.699219 287.847656 C 208.035156 288.511719 207.335938 289.144531 206.609375 289.742188 C 205.882812 290.339844 205.128906 290.898438 204.34375 291.421875 C 203.5625 291.945312 202.753906 292.425781 201.925781 292.871094 C 201.09375 293.316406 200.246094 293.71875 199.375 294.078125 C 198.507812 294.4375 197.621094 294.753906 196.722656 295.027344 C 195.820312 295.300781 194.910156 295.527344 193.984375 295.710938 C 193.0625 295.894531 192.132812 296.035156 191.195312 296.125 C 190.257812 296.21875 189.320312 296.265625 188.378906 296.265625 C 187.4375 296.265625 186.5 296.21875 185.5625 296.125 C 184.625 296.035156 183.695312 295.894531 182.773438 295.710938 C 181.847656 295.527344 180.9375 295.300781 180.035156 295.027344 C 179.136719 294.753906 178.25 294.4375 177.382812 294.078125 C 176.511719 293.71875 175.664062 293.316406 174.832031 292.871094 C 174.003906 292.425781 173.195312 291.945312 172.414062 291.421875 C 171.628906 290.898438 170.875 290.339844 170.148438 289.742188 C 169.421875 289.144531 168.722656 288.511719 168.058594 287.847656 C 167.390625 287.183594 166.761719 286.488281 166.164062 285.757812 C 165.566406 285.03125 165.003906 284.277344 164.480469 283.496094 C 163.957031 282.710938 163.472656 281.90625 163.027344 281.074219 C 162.585938 280.246094 162.183594 279.394531 161.820312 278.527344 C 161.460938 277.65625 161.144531 276.773438 160.871094 275.871094 C 160.597656 274.96875 160.367188 274.058594 160.183594 273.136719 C 160 272.210938 159.863281 271.28125 159.769531 270.34375 C 159.675781 269.40625 159.628906 268.46875 159.628906 267.527344 C 159.628906 266.585938 159.675781 265.648438 159.769531 264.710938 C 159.863281 263.773438 160 262.84375 160.183594 261.917969 C 160.367188 260.996094 160.597656 260.085938 160.871094 259.183594 C 161.144531 258.28125 161.460938 257.398438 161.820312 256.527344 C 162.183594 255.660156 162.585938 254.808594 163.027344 253.980469 C 163.472656 253.148438 163.957031 252.34375 164.480469 251.558594 C 165.003906 250.777344 165.566406 250.023438 166.164062 249.296875 C 166.761719 248.566406 167.390625 247.871094 168.058594 247.207031 C 170.835938 244.441406 173.917969 242.34375 177.46875 240.9375 L 177.46875 137.976562 C 174.046875 136.570312 170.835938 134.496094 168.058594 131.707031 C 167.054688 130.703125 166.132812 129.632812 165.285156 128.496094 C 164.441406 127.355469 163.6875 126.160156 163.019531 124.910156 C 162.351562 123.660156 161.777344 122.367188 161.304688 121.03125 C 160.828125 119.695312 160.453125 118.332031 160.179688 116.941406 C 159.902344 115.550781 159.734375 114.144531 159.667969 112.730469 C 159.601562 111.3125 159.640625 109.898438 159.785156 108.488281 C 159.925781 107.078125 160.175781 105.6875 160.523438 104.3125 C 160.875 102.9375 161.324219 101.597656 161.871094 100.289062 L 119.332031 57.773438 L 7.066406 169.921875 C 6.507812 170.480469 5.976562 171.066406 5.472656 171.675781 C 4.972656 172.289062 4.5 172.921875 4.058594 173.582031 C 3.621094 174.238281 3.214844 174.917969 2.839844 175.613281 C 2.46875 176.3125 2.128906 177.027344 1.824219 177.757812 C 1.523438 178.488281 1.257812 179.230469 1.027344 179.988281 C 0.796875 180.746094 0.605469 181.511719 0.449219 182.289062 C 0.296875 183.066406 0.179688 183.847656 0.101562 184.632812 C 0.0234375 185.421875 -0.015625 186.210938 -0.015625 187 C -0.015625 187.792969 0.0234375 188.582031 0.101562 189.371094 C 0.179688 190.15625 0.296875 190.9375 0.449219 191.714844 C 0.605469 192.492188 0.796875 193.257812 1.027344 194.015625 C 1.257812 194.773438 1.523438 195.515625 1.824219 196.246094 C 2.128906 196.976562 2.46875 197.691406 2.839844 198.390625 C 3.214844 199.085938 3.621094 199.765625 4.058594 200.421875 C 4.5 201.082031 4.972656 201.714844 5.472656 202.328125 C 5.976562 202.9375 6.507812 203.523438 7.066406 204.082031 L 170.800781 367.792969 C 171.359375 368.351562 171.945312 368.882812 172.554688 369.386719 C 173.167969 369.886719 173.800781 370.355469 174.460938 370.796875 C 175.117188 371.238281 175.792969 371.640625 176.492188 372.015625 C 177.1875 372.386719 177.902344 372.726562 178.632812 373.027344 C 179.363281 373.332031 180.109375 373.597656 180.863281 373.828125 C 181.621094 374.058594 182.386719 374.25 183.164062 374.402344 C 183.941406 374.558594 184.722656 374.675781 185.507812 374.75 C 186.296875 374.828125 187.085938 374.867188 187.875 374.867188 C 188.664062 374.867188 189.453125 374.828125 190.242188 374.75 C 191.027344 374.675781 191.808594 374.558594 192.585938 374.402344 C 193.363281 374.25 194.128906 374.058594 194.886719 373.828125 C 195.640625 373.597656 196.386719 373.332031 197.117188 373.027344 C 197.847656 372.726562 198.5625 372.386719 199.257812 372.015625 C 199.957031 371.640625 200.632812 371.238281 201.289062 370.796875 C 201.949219 370.355469 202.582031 369.886719 203.195312 369.386719 C 203.804688 368.882812 204.390625 368.351562 204.949219 367.792969 L 367.921875 205.078125 C 368.480469 204.519531 369.011719 203.933594 369.515625 203.324219 C 370.015625 202.710938 370.488281 202.078125 370.929688 201.417969 C 371.367188 200.761719 371.773438 200.082031 372.148438 199.386719 C 372.519531 198.6875 372.859375 197.972656 373.164062 197.242188 C 373.464844 196.511719 373.730469 195.769531 373.960938 195.011719 C 374.191406 194.253906 374.382812 193.488281 374.539062 192.710938 C 374.691406 191.933594 374.808594 191.152344 374.886719 190.367188 C 374.964844 189.578125 375.003906 188.789062 375.003906 187.996094 C 375.003906 187.207031 374.964844 186.417969 374.886719 185.628906 C 374.808594 184.84375 374.691406 184.0625 374.539062 183.285156 C 374.382812 182.507812 374.191406 181.742188 373.960938 180.984375 C 373.730469 180.226562 373.464844 179.484375 373.164062 178.753906 C 372.859375 178.023438 372.519531 177.308594 372.148438 176.609375 C 371.773438 175.914062 371.367188 175.234375 370.929688 174.578125 C 370.488281 173.917969 370.015625 173.285156 369.515625 172.671875 C 369.011719 172.0625 368.480469 171.476562 367.921875 170.917969 " fill-opacity="1" fill-rule="nonzero"/></svg>