<svg xmlns="http://www.w3.org/2000/svg" xmlns:xlink="http://www.w3.org/1999/xlink" width="500" zoomAndPan="magnify" viewBox="0 0 375 374.999991" height="500" preserveAspectRatio="xMidYMid meet" version="1.0"><path fill="#000000" d="M 356.015625 233.335938 C 353.949219 227.09375 348.558594 222.746094 341.582031 221.695312 C 338.292969 221.214844 334.523438 221.414062 330.070312 222.339844 C 322.300781 223.9375 316.535156 224.558594 312.320312 224.679688 C 328.207031 197.839844 341.125 167.238281 348.558594 138.4375 C 360.578125 91.859375 354.152344 70.644531 346.640625 61.046875 C 326.785156 35.644531 297.792969 21.996094 262.828125 21.578125 C 244.179688 21.351562 227.800781 25.035156 219.265625 27.6875 C 211.3125 26.28125 202.75 25.5 193.789062 25.351562 C 176.964844 25.085938 162.101562 28.753906 149.410156 36.296875 C 142.375 33.917969 131.09375 30.5625 118.0625 28.421875 C 87.417969 23.386719 62.71875 27.3125 44.652344 40.082031 C 22.777344 55.546875 12.636719 82.417969 14.511719 119.945312 C 15.105469 131.859375 21.769531 168.113281 32.253906 202.484375 C 38.28125 222.246094 44.707031 238.65625 51.355469 251.261719 C 60.78125 269.144531 70.871094 279.671875 82.195312 283.457031 C 88.539062 285.566406 100.074219 287.058594 112.203125 276.945312 C 113.738281 278.800781 115.792969 280.652344 118.511719 282.371094 C 121.972656 284.558594 126.199219 286.34375 130.421875 287.390625 C 145.636719 291.207031 159.886719 290.253906 172.042969 284.921875 C 172.121094 287.082031 172.175781 289.152344 172.230469 290.9375 C 172.3125 293.835938 172.390625 296.671875 172.5 299.328125 C 173.210938 317.28125 174.429688 331.242188 178.054688 341.019531 C 178.253906 341.554688 178.523438 342.375 178.804688 343.234375 C 180.601562 348.765625 183.621094 358.027344 191.292969 365.277344 C 199.25 372.785156 208.871094 375.082031 217.671875 375.082031 C 222.085938 375.082031 226.296875 374.503906 230 373.710938 C 243.175781 370.890625 258.132812 366.582031 268.960938 351.15625 C 279.195312 336.574219 284.160156 314.621094 285.058594 280.007812 C 285.179688 279.027344 285.289062 278.101562 285.394531 277.203125 C 285.460938 276.609375 285.527344 275.992188 285.609375 275.375 L 288.023438 275.589844 L 288.640625 275.632812 C 302.058594 276.25 318.464844 273.402344 328.542969 268.714844 C 336.511719 265.011719 362.027344 251.53125 356.015625 233.335938 " fill-opacity="1" fill-rule="nonzero"/><path fill="#336791" d="M 333.074219 236.867188 C 293.175781 245.113281 290.425781 231.59375 290.425781 231.59375 C 332.550781 169.023438 350.167969 89.621094 334.96875 70.191406 C 293.511719 17.175781 221.734375 42.246094 220.542969 42.898438 L 220.152344 42.96875 C 212.277344 41.328125 203.449219 40.355469 193.535156 40.191406 C 175.476562 39.894531 161.792969 44.929688 151.394531 52.816406 C 151.394531 52.816406 23.367188 0.03125 29.320312 119.199219 C 30.585938 144.554688 65.628906 311.023438 107.425781 260.742188 C 122.703125 242.363281 137.464844 226.8125 137.464844 226.8125 C 144.796875 231.6875 153.570312 234.171875 162.773438 233.285156 L 163.484375 232.667969 C 163.269531 234.949219 163.363281 237.191406 163.777344 239.835938 C 153.003906 251.867188 156.171875 253.988281 134.648438 258.417969 C 112.867188 262.917969 125.660156 270.90625 134.015625 273 C 144.140625 275.539062 167.574219 279.125 183.40625 256.941406 L 182.773438 259.480469 C 186.988281 262.863281 189.953125 281.472656 189.457031 298.351562 C 188.960938 315.226562 188.625 326.8125 191.953125 335.863281 C 195.277344 344.914062 198.59375 365.265625 226.886719 359.199219 C 250.527344 354.136719 262.789062 340.992188 264.492188 319.066406 C 265.699219 303.492188 268.4375 305.789062 268.613281 291.863281 L 270.796875 285.257812 C 273.332031 264.140625 271.199219 257.320312 285.769531 260.488281 L 289.3125 260.808594 C 300.03125 261.292969 314.066406 259.078125 322.300781 255.25 C 340.039062 247.007812 350.558594 233.257812 333.0625 236.871094 L 333.074219 236.871094 " fill-opacity="1" fill-rule="nonzero"/><path fill="#ffffff" d="M 158.894531 130.539062 C 155.300781 130.039062 152.039062 130.5 150.390625 131.75 C 149.464844 132.453125 149.179688 133.265625 149.101562 133.824219 C 148.898438 135.308594 149.933594 136.949219 150.5625 137.796875 C 152.375 140.191406 155.015625 141.835938 157.621094 142.199219 C 158.007812 142.25 158.386719 142.277344 158.746094 142.277344 C 163.105469 142.277344 167.066406 138.882812 167.414062 136.378906 C 167.855469 133.242188 163.296875 131.152344 158.894531 130.539062 " fill-opacity="1" fill-rule="nonzero"/><path fill="#ffffff" d="M 278.003906 130.636719 C 277.652344 128.179688 273.292969 127.476562 269.132812 128.054688 C 265.003906 128.632812 260.976562 130.503906 261.3125 132.96875 C 261.582031 134.882812 265.042969 138.15625 269.132812 138.15625 C 269.484375 138.15625 269.832031 138.132812 270.179688 138.082031 C 272.90625 137.703125 274.917969 135.96875 275.871094 134.96875 C 277.320312 133.441406 278.148438 131.742188 278.003906 130.636719 " fill-opacity="1" fill-rule="nonzero"/><path fill="#ffffff" d="M 346.34375 235.941406 C 344.828125 231.335938 339.929688 229.847656 331.789062 231.539062 C 307.640625 236.519531 298.984375 233.070312 296.140625 230.976562 C 314.921875 202.351562 330.367188 167.75 338.695312 135.460938 C 342.65625 120.167969 344.828125 105.964844 345.003906 94.390625 C 345.203125 81.683594 343.042969 72.347656 338.578125 66.644531 C 320.597656 43.652344 294.210938 31.316406 262.265625 30.980469 C 240.304688 30.730469 221.75 36.355469 218.152344 37.9375 C 210.585938 36.050781 202.324219 34.894531 193.332031 34.746094 C 176.84375 34.480469 162.597656 38.429688 150.804688 46.480469 C 145.675781 44.574219 132.429688 40.023438 116.234375 37.410156 C 88.230469 32.898438 65.980469 36.320312 50.101562 47.578125 C 31.152344 61.011719 22.40625 85.027344 24.097656 118.949219 C 24.671875 130.363281 31.167969 165.480469 41.421875 199.101562 C 54.921875 243.367188 69.597656 268.421875 85.035156 273.578125 C 86.84375 274.179688 88.929688 274.597656 91.226562 274.597656 C 96.859375 274.597656 103.761719 272.058594 110.945312 263.414062 C 122.878906 249.046875 134.023438 237.003906 138.128906 232.625 C 144.199219 235.890625 150.871094 237.714844 157.6875 237.890625 C 157.699219 238.078125 157.714844 238.25 157.726562 238.425781 C 156.359375 240.050781 155.246094 241.472656 154.28125 242.695312 C 149.558594 248.699219 148.578125 249.945312 133.367188 253.074219 C 129.039062 253.972656 117.546875 256.335938 117.378906 264.40625 C 117.199219 273.214844 130.964844 276.90625 132.53125 277.296875 C 137.996094 278.664062 143.261719 279.351562 148.28125 279.351562 C 160.503906 279.351562 171.25 275.335938 179.835938 267.5625 C 179.570312 298.953125 180.882812 329.902344 184.640625 339.324219 C 187.726562 347.046875 195.265625 365.898438 219.078125 365.898438 C 222.566406 365.898438 226.417969 365.492188 230.644531 364.582031 C 255.492188 359.25 266.277344 348.269531 270.460938 324.035156 C 272.691406 311.089844 276.527344 280.15625 278.324219 263.574219 C 282.136719 264.753906 287.03125 265.304688 292.332031 265.304688 C 303.371094 265.304688 316.117188 262.957031 324.101562 259.238281 C 333.089844 255.074219 349.28125 244.832031 346.34375 235.941406 Z M 287.179688 123.851562 C 287.085938 128.75 286.414062 133.195312 285.703125 137.835938 C 284.9375 142.824219 284.148438 147.984375 283.945312 154.25 C 283.746094 160.339844 284.507812 166.675781 285.246094 172.8125 C 286.722656 185.191406 288.253906 197.933594 282.347656 210.511719 C 281.421875 208.875 280.539062 207.101562 279.734375 205.128906 C 278.996094 203.34375 277.398438 200.484375 275.199219 196.523438 C 266.613281 181.121094 246.515625 145.039062 256.804688 130.3125 C 259.863281 125.933594 267.644531 121.425781 287.179688 123.851562 Z M 263.5 40.894531 C 292.128906 41.527344 314.761719 52.242188 330.796875 72.742188 C 343.085938 88.464844 329.546875 160.015625 290.359375 221.734375 C 289.96875 221.238281 289.582031 220.742188 289.164062 220.230469 C 289.003906 220.03125 288.84375 219.816406 288.667969 219.613281 C 298.796875 202.871094 296.824219 186.316406 295.054688 171.628906 C 294.328125 165.597656 293.644531 159.90625 293.820312 154.5625 C 294.007812 148.894531 294.757812 144.039062 295.46875 139.339844 C 296.371094 133.546875 297.269531 127.554688 297.027344 120.492188 C 297.214844 119.75 297.28125 118.875 297.1875 117.835938 C 296.542969 111.0625 288.816406 90.789062 273.066406 72.441406 C 264.453125 62.40625 251.894531 51.171875 234.734375 43.597656 C 242.113281 42.066406 252.203125 40.640625 263.5 40.890625 Z M 103.339844 257.085938 C 95.421875 266.605469 89.957031 264.78125 88.160156 264.1875 C 76.445312 260.269531 62.855469 235.496094 50.875 196.210938 C 40.507812 162.214844 34.449219 128.039062 33.96875 118.453125 C 32.453125 88.140625 39.796875 67.011719 55.792969 55.660156 C 81.824219 37.183594 124.625 48.242188 141.824219 53.851562 C 141.578125 54.09375 141.320312 54.324219 141.074219 54.570312 C 112.851562 83.09375 113.523438 131.828125 113.59375 134.804688 C 113.589844 135.957031 113.6875 137.582031 113.816406 139.820312 C 114.304688 148.019531 115.207031 163.277344 112.792969 180.554688 C 110.550781 196.601562 115.496094 212.324219 126.359375 223.65625 C 127.480469 224.835938 128.65625 225.9375 129.867188 226.972656 C 125.035156 232.152344 114.523438 243.621094 103.339844 257.085938 Z M 133.496094 216.808594 C 124.742188 207.675781 120.765625 194.949219 122.585938 181.925781 C 125.132812 163.664062 124.195312 147.773438 123.6875 139.234375 C 123.617188 138.042969 123.554688 136.992188 123.519531 136.167969 C 127.640625 132.507812 146.746094 122.265625 160.363281 125.390625 C 166.589844 126.8125 170.375 131.050781 171.957031 138.339844 C 180.101562 176.070312 173.03125 191.792969 167.355469 204.441406 C 166.175781 207.03125 165.074219 209.503906 164.121094 212.039062 L 163.398438 214.015625 C 161.53125 218.996094 159.816406 223.613281 158.742188 228.003906 C 149.429688 227.976562 140.382812 224.003906 133.496094 216.808594 Z M 134.925781 267.707031 C 132.207031 267.023438 129.761719 265.839844 128.328125 264.859375 C 129.527344 264.296875 131.660156 263.53125 135.355469 262.765625 C 153.253906 259.085938 156.019531 256.480469 162.042969 248.816406 C 163.4375 247.058594 164.992188 245.054688 167.167969 242.640625 L 167.167969 242.625 C 170.414062 239 171.890625 239.617188 174.574219 240.734375 C 176.746094 241.632812 178.867188 244.359375 179.722656 247.367188 C 180.128906 248.777344 180.582031 251.472656 179.09375 253.570312 C 166.484375 271.222656 148.117188 271.007812 134.925781 267.707031 Z M 228.574219 354.910156 C 206.675781 359.597656 198.921875 348.425781 193.824219 335.644531 C 190.523438 327.402344 188.902344 290.195312 190.054688 249.109375 C 190.066406 248.574219 189.988281 248.035156 189.839844 247.539062 C 189.707031 246.585938 189.503906 245.621094 189.222656 244.640625 C 187.519531 238.664062 183.359375 233.671875 178.355469 231.589844 C 176.371094 230.769531 172.722656 229.253906 168.347656 230.382812 C 169.285156 226.527344 170.898438 222.179688 172.652344 217.476562 L 173.390625 215.492188 C 174.222656 213.261719 175.257812 210.941406 176.371094 208.496094 C 182.3125 195.269531 190.457031 177.160156 181.617188 136.25 C 178.300781 120.921875 167.246094 113.441406 150.492188 115.179688 C 140.4375 116.21875 131.242188 120.277344 126.65625 122.601562 C 125.671875 123.101562 124.769531 123.585938 123.925781 124.054688 C 125.207031 108.617188 130.042969 79.757812 148.128906 61.503906 C 159.519531 50.007812 174.679688 44.332031 193.167969 44.640625 C 229.578125 45.234375 252.921875 63.933594 266.097656 79.519531 C 277.460938 92.945312 283.605469 106.472656 286.058594 113.769531 C 267.613281 111.890625 255.054688 115.535156 248.695312 124.640625 C 234.851562 144.441406 256.261719 182.878906 266.554688 201.339844 C 268.445312 204.722656 270.070312 207.648438 270.589844 208.898438 C 273.933594 217.023438 278.277344 222.445312 281.445312 226.421875 C 282.410156 227.628906 283.363281 228.808594 284.074219 229.832031 C 278.480469 231.441406 268.445312 235.175781 269.355469 253.796875 C 268.621094 263.140625 263.375 306.886719 260.703125 322.351562 C 257.1875 342.773438 249.675781 350.375 228.574219 354.910156 Z M 319.9375 250.265625 C 314.222656 252.925781 304.65625 254.910156 295.574219 255.339844 C 285.539062 255.8125 280.425781 254.214844 279.230469 253.234375 C 278.667969 241.632812 282.976562 240.410156 287.550781 239.136719 C 288.261719 238.933594 288.972656 238.734375 289.640625 238.503906 C 290.058594 238.839844 290.527344 239.175781 291.023438 239.511719 C 299.085938 244.839844 313.484375 245.417969 333.78125 241.214844 C 333.863281 241.203125 333.941406 241.191406 334.007812 241.175781 C 331.273438 243.742188 326.589844 247.179688 319.9375 250.265625 Z M 319.9375 250.265625 " fill-opacity="1" fill-rule="nonzero"/></svg>